# xmcd
#
# Track frame offsets:
#        150
#        14730
#        35122
#        54450
#        70975
#        88177
#        107682
#        129222
#        147460
#        165270
#        183172
#        198820
#        220332
#        238637
#        259410
#        277320
#        297582
#        311447
#
# Disc length: 4384 seconds
#
# Revision: 0
# Processed by: cddbd v1.5.1PL0 Copyright (c) Steve Scherf et al.
# Submitted via: ExactAudioCopy v0.95a5
#
DISCID=18111e12
DTITLE=Various Artist - Luire Presents Celebz
DYEAR=2004
DGENRE=R&B
TTITLE0=Ashanti - Unfoolish
TTITLE1=Christina Milian - Spending Time
TTITLE2=Carl Thomas - She Is
TTITLE3=Jerzee Monet - Most High
TTITLE4=Musiq - Forthenight
TTITLE5=Faith Evans - Do Your Time
TTITLE6=Erykah Badu - Back In The Day
TTITLE7=Floetry - Butterflies
TTITLE8=Mya - Things Come and Go
TTITLE9=Tiffany Villarreal - You, Yourself and You
TTITLE10=India. Arie - Little Things
TTITLE11=K-Ci and JoJo - Down For Life
TTITLE12=Keeshia Cole - Never
TTITLE13=Trina Brooussard - Losing My Mind
TTITLE14=Yasmeen - Blue Jeans
TTITLE15=Thicke - Brand New Jones
TTITLE16=Lumidee - Never Leave You (Uh Oooh, Uh Oooh)
TTITLE17=Nina Sky - Move Ya Body
EXTD=
EXTT0=
EXTT1=
EXTT2=
EXTT3=
EXTT4=
EXTT5=
EXTT6=
EXTT7=
EXTT8=
EXTT9=
EXTT10=
EXTT11=
EXTT12=
EXTT13=
EXTT14=
EXTT15=
EXTT16=
EXTT17=
PLAYORDER=
